<svg width="384" height="128" viewBox="0 0 384 128" fill="none" xmlns="http://www.w3.org/2000/svg">
<path d="M97.75 97.25C97.75 95.6875 97.8438 94.125 98.0312 92.5625C98.2812 91 98.5312 89.4688 98.7812 87.9688C99.0938 86.4062 99.3438 84.8438 99.5312 83.2812C99.7812 81.6562 99.9062 80.0312 99.9062 78.4062C97.8438 78.4062 96.0625 78.5 94.5625 78.6875C93.0625 78.875 91.5938 79.0625 90.1562 79.25C88.7188 79.4375 87.1875 79.5938 85.5625 79.7188C83.9375 79.7812 81.9688 79.75 79.6562 79.625C77.9688 81.5 76.0312 83.5 73.8438 85.625C71.7188 87.75 69.4375 89.7188 67 91.5312C64.5625 93.3438 62 94.875 59.3125 96.125C56.625 97.3125 53.9062 97.9062 51.1562 97.9062C49.2812 97.9062 47.4688 97.5938 45.7188 96.9688C44.0312 96.3438 42.5312 95.4688 41.2188 94.3438C39.9062 93.2188 38.875 91.875 38.125 90.3125C37.375 88.6875 37 86.9062 37 84.9688C37 83.9688 37.1562 83.2188 37.4688 82.7188C37.8438 82.1562 38.5938 81.875 39.7188 81.875C40.2812 81.875 40.7812 82.4062 41.2188 83.4688C41.6562 84.4688 42.2188 85.625 42.9062 86.9375C43.6562 88.1875 44.5938 89.3438 45.7188 90.4062C46.8438 91.4062 48.375 91.9062 50.3125 91.9062C52.6875 91.9062 55 91.4688 57.25 90.5938C59.5625 89.6562 61.75 88.5 63.8125 87.125C65.9375 85.6875 67.9062 84.0938 69.7188 82.3438C71.5938 80.5938 73.2812 78.875 74.7812 77.1875C74.5938 75.625 74.0312 74.4688 73.0938 73.7188C72.1562 72.9688 71.1562 72.2188 70.0938 71.4688C69.0938 70.7188 68.1875 69.7188 67.375 68.4688C66.5625 67.2188 66.1562 65.25 66.1562 62.5625C66.1562 58.75 67.3125 55.7812 69.625 53.6562C71.9375 51.4688 75.0938 50.375 79.0938 50.375C80.2812 50.375 81.4375 50.5 82.5625 50.75C83.75 51 84.9375 51.3125 86.125 51.6875C87.3125 52 88.4688 52.2812 89.5938 52.5312C90.7812 52.7812 91.9688 52.9062 93.1562 52.9062C93.9062 52.9062 94.5 52.8125 94.9375 52.625C95.4375 52.4375 95.875 52.1562 96.25 51.7812C96.625 51.4062 97.0312 50.9062 97.4688 50.2812C97.9062 49.6562 98.4688 48.9062 99.1562 48.0312C99.5312 47.5312 100.094 46.75 100.844 45.6875C101.656 44.5625 102.531 43.3438 103.469 42.0312C104.406 40.6562 105.406 39.2188 106.469 37.7188C107.531 36.2188 108.531 34.7812 109.469 33.4062C110.406 32.0312 111.25 30.8125 112 29.75C112.75 28.6875 113.281 27.875 113.594 27.3125C114.281 26.75 114.906 26.4062 115.469 26.2812C116.031 26.0938 116.688 26 117.438 26C118.188 26 118.75 26.2812 119.125 26.8438C119.5 27.3438 119.719 27.9688 119.781 28.7188C119.906 29.4688 119.938 30.25 119.875 31.0625C119.875 31.8125 119.875 32.4062 119.875 32.8438C119.875 33.0312 119.875 33.3438 119.875 33.7812C119.875 34.1562 119.844 34.5625 119.781 35C119.781 35.4375 119.781 35.875 119.781 36.3125C119.781 36.6875 119.781 36.9375 119.781 37.0625C119.594 37.6875 119.281 38.625 118.844 39.875C118.469 41.125 118.031 42.5625 117.531 44.1875C117.031 45.75 116.5 47.4062 115.938 49.1562C115.438 50.9062 114.938 52.5938 114.438 54.2188C114 55.8438 113.594 57.2812 113.219 58.5312C112.844 59.7812 112.594 60.7188 112.469 61.3438C112.406 61.6562 112.312 62.1562 112.188 62.8438C112.062 63.5312 111.938 64.2812 111.812 65.0938C111.688 65.8438 111.562 66.5625 111.438 67.25C111.312 67.9375 111.25 68.4062 111.25 68.6562C111.812 68.7812 112.375 68.9688 112.938 69.2188C113.5 69.4688 113.781 69.875 113.781 70.4375C113.781 71.0625 113.531 71.5625 113.031 71.9375C112.594 72.3125 112.062 72.6562 111.438 72.9688C110.812 73.2812 110.219 73.6562 109.656 74.0938C109.156 74.5312 108.875 75.1562 108.812 75.9688C108.688 76.7188 108.469 78.0938 108.156 80.0938C107.844 82.0312 107.469 84.125 107.031 86.375C106.656 88.5625 106.281 90.625 105.906 92.5625C105.594 94.5 105.344 95.8438 105.156 96.5938C105.094 96.7812 104.969 97.125 104.781 97.625C104.594 98.125 104.375 98.625 104.125 99.125C103.875 99.625 103.625 100.094 103.375 100.531C103.125 100.969 102.938 101.281 102.812 101.469C101.312 101.156 100.094 100.781 99.1562 100.344C98.2188 99.8438 97.75 98.8125 97.75 97.25ZM96.1562 61.25C95.4062 61.25 94.3438 61.7812 92.9688 62.8438C91.6562 63.9062 90.3438 65.1562 89.0312 66.5938C87.7188 67.9688 86.5625 69.375 85.5625 70.8125C84.5625 72.1875 84.0625 73.2188 84.0625 73.9062C84.4375 73.9062 85.1562 73.9062 86.2188 73.9062C87.3438 73.8438 88.5 73.8125 89.6875 73.8125C90.9375 73.75 92.0938 73.6875 93.1562 73.625C94.2812 73.5625 95.0625 73.5312 95.5 73.5312C95.75 73.5312 96.125 73.4688 96.625 73.3438C97.1875 73.2188 97.7188 73.0938 98.2188 72.9688C98.7188 72.8438 99.1562 72.7188 99.5312 72.5938C99.9688 72.4688 100.219 72.375 100.281 72.3125C100.344 72.3125 100.375 72.125 100.375 71.75C100.375 71.3125 100.375 70.9688 100.375 70.7188C100.375 70.2188 100.281 69.4375 100.094 68.375C99.9688 67.3125 99.7188 66.25 99.3438 65.1875C99.0312 64.125 98.5938 63.2188 98.0312 62.4688C97.5312 61.6562 96.9062 61.25 96.1562 61.25ZM69.8125 61.3438C69.8125 62.2188 70.125 63.2188 70.75 64.3438C71.375 65.4688 72.1562 66.5312 73.0938 67.5312C74.0312 68.5312 75.0312 69.375 76.0938 70.0625C77.1562 70.75 78.1562 71.0938 79.0938 71.0938C79.9688 71.0938 81 70.5625 82.1875 69.5C83.375 68.4375 84.5 67.2188 85.5625 65.8438C86.6875 64.4062 87.625 63.0312 88.375 61.7188C89.125 60.4062 89.5 59.5 89.5 59C89.5 57.9375 89.125 57.1562 88.375 56.6562C87.6875 56.0938 86.8438 55.7188 85.8438 55.5312C84.9062 55.2812 83.9062 55.1562 82.8438 55.1562C81.7812 55.1562 80.9062 55.1562 80.2188 55.1562C79.3438 55.1562 78.2812 55.25 77.0312 55.4375C75.8438 55.5625 74.7188 55.8438 73.6562 56.2812C72.5938 56.7188 71.6875 57.3438 70.9375 58.1562C70.1875 58.9688 69.8125 60.0312 69.8125 61.3438ZM97.9375 56.5625C99.3125 58.1875 100.594 59.9375 101.781 61.8125C102.969 63.6875 104.094 65.5938 105.156 67.5312L113.5 37.5312L97.9375 56.5625Z" fill="black"/>
<path d="M118.75 92.9375C118.75 92.5 118.781 91.8438 118.844 90.9688C118.969 90.0312 119.094 89.125 119.219 88.25C119.344 87.375 119.469 86.5938 119.594 85.9062C119.719 85.1562 119.844 84.6875 119.969 84.5L137.031 50.375C137.281 49.875 137.75 49.1875 138.438 48.3125C139.188 47.375 139.969 46.4375 140.781 45.5C141.656 44.5 142.5 43.5938 143.312 42.7812C144.188 41.9062 144.906 41.2188 145.469 40.7188C145.906 40.8438 146.219 41.0625 146.406 41.375C146.594 41.6875 146.719 42.0625 146.781 42.5C146.844 42.875 146.844 43.25 146.781 43.625C146.781 44 146.781 44.3125 146.781 44.5625C146.781 44.875 146.781 45.3125 146.781 45.875C146.781 46.4375 146.75 46.7188 146.688 46.7188C146.062 48.4062 145.094 50.4062 143.781 52.7188C142.469 55.0312 141 57.5 139.375 60.125C137.75 62.75 136.062 65.5 134.312 68.375C132.625 71.1875 131.062 74 129.625 76.8125C128.25 79.5625 127.094 82.2188 126.156 84.7812C125.281 87.3438 124.844 89.6875 124.844 91.8125C124.844 92.9375 125.156 93.8438 125.781 94.5312C126.469 95.1562 127.188 95.7188 127.938 96.2188C128.688 96.7188 129.375 97.2188 130 97.7188C130.688 98.2188 131.031 98.9062 131.031 99.7812C131.031 100.344 130.781 100.781 130.281 101.094C129.781 101.344 129.188 101.469 128.5 101.469C125.875 101.469 123.594 100.75 121.656 99.3125C119.719 97.8125 118.75 95.6875 118.75 92.9375Z" fill="black"/>
<path d="M143.219 95.5625C143.219 95.375 143.219 95.125 143.219 94.8125C143.281 94.4375 143.312 94.2188 143.312 94.1562C143.5 92.2812 143.719 89.9062 143.969 87.0312C144.219 84.0938 144.469 81.2812 144.719 78.5938C145.031 75.9062 145.281 73.5938 145.469 71.6562C145.656 69.6562 145.75 68.6562 145.75 68.6562L148.281 66.2188C149.344 66.5312 150.125 66.9688 150.625 67.5312C151.125 68.0312 151.469 68.5938 151.656 69.2188C151.844 69.8438 151.938 70.5312 151.938 71.2812C151.938 72.0312 151.938 72.7812 151.938 73.5312C151.938 76.1562 151.688 78.7188 151.188 81.2188C150.75 83.6562 150.531 86.1562 150.531 88.7188C150.531 88.8438 150.531 89.1562 150.531 89.6562C150.594 90.0938 150.625 90.375 150.625 90.5L173.688 66.2188C173.75 66.1562 173.906 66.125 174.156 66.125C174.469 66.125 174.688 66.125 174.812 66.125C175.438 66.125 176.031 66.25 176.594 66.5C177.156 66.75 177.438 67.2812 177.438 68.0938C177.438 68.1562 177.406 68.2188 177.344 68.2812C177.344 68.2812 177.344 68.3125 177.344 68.375V68.6562C177.031 69.1562 176.469 69.9688 175.656 71.0938C174.906 72.2188 174.062 73.4375 173.125 74.75C172.25 76.0625 171.406 77.3125 170.594 78.5C169.781 79.625 169.219 80.4062 168.906 80.8438C167.844 82.1562 166.594 83.7188 165.156 85.5312C163.781 87.3438 162.281 89.1875 160.656 91.0625C159.094 92.875 157.438 94.625 155.688 96.3125C154 97.9375 152.312 99.25 150.625 100.25C150.312 100.438 149.844 100.688 149.219 101C148.656 101.312 148.344 101.469 148.281 101.469C147.594 101.469 146.938 101.281 146.312 100.906C145.75 100.469 145.219 99.9375 144.719 99.3125C144.281 98.6875 143.906 98.0625 143.594 97.4375C143.344 96.75 143.219 96.125 143.219 95.5625Z" fill="black"/>
<path d="M212.875 101.562C211.312 101.812 209.875 101.562 208.562 100.812C207.312 100 206.312 98.9688 205.562 97.7188C204.812 96.4062 204.375 95 204.25 93.5C204.125 91.9375 204.438 90.5312 205.188 89.2812C207.938 85.7188 209.812 82.9062 210.812 80.8438C211.812 78.7188 212.156 77.25 211.844 76.4375C211.594 75.5625 210.812 75.2188 209.5 75.4062C208.25 75.5312 206.719 76.0938 204.906 77.0938C203.094 78.0312 201.125 79.2812 199 80.8438C196.938 82.4062 195 84.125 193.188 86C191.375 87.875 189.781 89.8438 188.406 91.9062C187.094 93.9062 186.25 95.875 185.875 97.8125C185.25 98.1875 184.719 98.5 184.281 98.75C183.844 98.9375 183.344 99.0312 182.781 99.0312C181.844 99.0312 181.281 98.7188 181.094 98.0938C180.906 97.4688 180.812 96.8125 180.812 96.125C180.812 94.5625 181.281 92.9688 182.219 91.3438C183.219 89.6562 184.344 88.0938 185.594 86.6562C186.906 85.1562 188.156 83.8125 189.344 82.625C190.531 81.375 191.375 80.375 191.875 79.625C193.438 77.0625 195 74.3125 196.562 71.375C198.125 68.375 199.688 65.3438 201.25 62.2812C202.812 59.1562 204.406 56.0938 206.031 53.0938C207.719 50.0312 209.469 47.125 211.281 44.375C211.594 43.875 211.844 43.5312 212.031 43.3438C212.281 43.1562 212.625 43.0625 213.062 43.0625C213.562 43.0625 213.938 43.1562 214.188 43.3438C214.438 43.5312 214.688 43.875 214.938 44.375C214.938 44.625 214.875 45.0312 214.75 45.5938C214.688 46.1562 214.594 46.7812 214.469 47.4688C214.406 48.0938 214.281 48.6875 214.094 49.25C213.969 49.8125 213.875 50.1875 213.812 50.375C213.438 51.125 212.812 52.4375 211.938 54.3125C211.062 56.1875 210.094 58.1875 209.031 60.3125C208.031 62.4375 207.062 64.5312 206.125 66.5938C205.188 68.5938 204.5 70.0938 204.062 71.0938C205 70.4688 205.844 70 206.594 69.6875C207.344 69.3125 208.062 69.0625 208.75 68.9375C209.5 68.75 210.25 68.6562 211 68.6562C211.812 68.5938 212.688 68.5625 213.625 68.5625C215.875 69.125 217.344 69.9688 218.031 71.0938C218.781 72.2188 219 73.5312 218.688 75.0312C218.438 76.4688 217.844 78.0625 216.906 79.8125C215.969 81.5625 214.969 83.3438 213.906 85.1562C212.906 86.9062 212 88.625 211.188 90.3125C210.375 91.9375 210 93.4375 210.062 94.8125C210.062 95.375 210.188 95.7812 210.438 96.0312C210.688 96.2812 211 96.4688 211.375 96.5938C211.75 96.7188 212.156 96.7812 212.594 96.7812C213.031 96.7812 213.438 96.7812 213.812 96.7812C215.125 96.7812 216.375 96.5938 217.562 96.2188C218.812 95.7812 220.031 95.3125 221.219 94.8125C222.406 94.3125 223.594 93.875 224.781 93.5C226.031 93.0625 227.312 92.8438 228.625 92.8438C228.625 94.0312 228.031 95.1562 226.844 96.2188C225.656 97.2812 224.219 98.2188 222.531 99.0312C220.906 99.7812 219.188 100.406 217.375 100.906C215.562 101.344 214.062 101.562 212.875 101.562Z" fill="black"/>
<path d="M225.531 96.5938C224.469 94.2188 224 91.9062 224.125 89.6562C224.25 87.3438 224.75 85.1875 225.625 83.1875C226.562 81.125 227.75 79.2812 229.188 77.6562C230.688 75.9688 232.281 74.5312 233.969 73.3438C235.656 72.0938 237.344 71.1562 239.031 70.5312C240.781 69.9062 242.312 69.6562 243.625 69.7812C244.938 69.8438 245.969 70.3125 246.719 71.1875C247.469 72.0625 247.719 73.4062 247.469 75.2188C247.469 77.6562 246.688 79.7812 245.125 81.5938C243.625 83.4062 241.938 85.0312 240.062 86.4688C238.25 87.9062 236.562 89.2188 235 90.4062C233.5 91.5312 232.75 92.5938 232.75 93.5938C232.75 94.1562 233.062 94.5938 233.688 94.9062C234.375 95.2188 235.156 95.4688 236.031 95.6562C236.906 95.7812 237.781 95.875 238.656 95.9375C239.531 96 240.156 96.0625 240.531 96.125C246.406 94.875 250.812 94.125 253.75 93.875C256.688 93.5625 258.531 93.5938 259.281 93.9688C260.031 94.2812 259.875 94.8125 258.812 95.5625C257.812 96.25 256.25 97 254.125 97.8125C252 98.5625 249.531 99.25 246.719 99.875C243.906 100.5 241.125 100.875 238.375 101C235.625 101.062 233.062 100.781 230.688 100.156C228.375 99.5312 226.656 98.3438 225.531 96.5938ZM241.938 75.2188C240.688 75.2188 239.5 75.5625 238.375 76.25C237.25 76.9375 236.219 77.8125 235.281 78.875C234.406 79.875 233.656 81 233.031 82.25C232.406 83.4375 231.938 84.5625 231.625 85.625C231.75 85.6875 231.844 85.7188 231.906 85.7188H232.188C233.062 85.7188 234.062 85.3438 235.188 84.5938C236.312 83.8438 237.375 82.9375 238.375 81.875C239.375 80.75 240.219 79.5938 240.906 78.4062C241.594 77.2188 241.938 76.1562 241.938 75.2188Z" fill="black"/>
<path d="M256.656 95.375C256.656 94.5 256.75 93.75 256.938 93.125C257.125 92.4375 257.469 91.5625 257.969 90.5C258.406 89.875 259.188 88.6875 260.312 86.9375C261.5 85.1875 262.719 83.3438 263.969 81.4062C265.281 79.4688 266.5 77.6562 267.625 75.9688C268.812 74.2188 269.625 73 270.062 72.3125C270.625 71.5 271.062 71.0625 271.375 71C271.688 70.9375 272.281 70.9062 273.156 70.9062C273.719 70.9062 274.312 70.9375 274.938 71C275.625 71.0625 276.062 71.5 276.25 72.3125C275.375 74.4375 274.188 76.4688 272.688 78.4062C271.25 80.2812 269.812 82.1562 268.375 84.0312C267 85.9062 265.781 87.8438 264.719 89.8438C263.656 91.7812 263.125 93.875 263.125 96.125C263.375 96.125 263.75 96.1562 264.25 96.2188C264.812 96.2812 265.406 96.3438 266.031 96.4062C266.656 96.4688 267.219 96.5312 267.719 96.5938C268.281 96.6562 268.688 96.6562 268.938 96.5938C269.312 96.5312 269.938 96.4062 270.812 96.2188C271.75 95.9688 272.719 95.7188 273.719 95.4688C274.781 95.2188 275.781 94.9688 276.719 94.7188C277.656 94.4688 278.312 94.2812 278.688 94.1562C278.688 94.2812 278.688 94.5 278.688 94.8125C278.75 95.0625 278.781 95.25 278.781 95.375C278.781 96.625 278.188 97.6562 277 98.4688C275.875 99.2812 274.531 99.9375 272.969 100.438C271.469 100.875 269.906 101.188 268.281 101.375C266.719 101.5 265.5 101.562 264.625 101.562C263.688 101.562 262.719 101.469 261.719 101.281C260.781 101.031 259.938 100.656 259.188 100.156C258.438 99.6562 257.812 99.0312 257.312 98.2812C256.875 97.4688 256.656 96.5 256.656 95.375ZM283.938 40.4375C284.75 40.4375 285.5 40.4688 286.188 40.5312C286.875 40.5938 287.469 40.75 287.969 41C288.469 41.25 288.875 41.625 289.188 42.125C289.5 42.625 289.656 43.3125 289.656 44.1875C289.656 44.5625 289.656 44.9688 289.656 45.4062C289.656 45.8438 289.594 46.2812 289.469 46.7188C289.406 47.0938 289.25 47.4375 289 47.75C288.75 48 288.344 48.125 287.781 48.125C286.906 48.125 286.188 47.8125 285.625 47.1875C285.125 46.5625 284.75 45.8438 284.5 45.0312C284.25 44.1562 284.094 43.2812 284.031 42.4062C283.969 41.5312 283.938 40.875 283.938 40.4375Z" fill="black"/>
<path d="M324.625 101.562C323.438 101.562 322.344 101.344 321.344 100.906C320.406 100.469 319.625 99.8438 319 99.0312C318.375 98.2188 317.938 97.3125 317.688 96.3125C317.438 95.25 317.469 94.125 317.781 92.9375C317.781 90.9375 318.125 89.0938 318.812 87.4062C319.562 85.6562 320.375 84 321.25 82.4375C322.188 80.8125 323 79.2188 323.688 77.6562C324.438 76.0312 324.812 74.3125 324.812 72.5C323.438 72.5 321.969 72.9375 320.406 73.8125C318.844 74.6875 317.25 75.8438 315.625 77.2812C314.062 78.7188 312.5 80.3438 310.938 82.1562C309.438 83.9062 308 85.6875 306.625 87.5C305.312 89.25 304.156 90.9375 303.156 92.5625C302.219 94.1875 301.5 95.5312 301 96.5938C300.875 96.6562 300.562 96.7188 300.062 96.7812C299.562 96.7812 299.25 96.7812 299.125 96.7812C298.125 97.2812 297.5 97.2812 297.25 96.7812C297.062 96.2188 297.062 95.375 297.25 94.25C297.5 93.125 297.875 91.875 298.375 90.5C298.875 89.0625 299.344 87.7188 299.781 86.4688C300.281 85.1562 300.656 84.0938 300.906 83.2812C301.156 82.4062 301.188 81.9688 301 81.9688C301.188 81.7188 301.406 81.3125 301.656 80.75C301.906 80.1875 302.156 79.5938 302.406 78.9688C302.656 78.3438 302.875 77.7812 303.062 77.2812C303.25 76.7188 303.344 76.2812 303.344 75.9688C303.344 75.4062 303.125 75.0625 302.688 74.9375C302.312 74.75 301.938 74.6562 301.562 74.6562C300.438 74.0312 299.219 74.4062 297.906 75.7812C296.656 77.0938 295.281 79 293.781 81.5C292.344 83.9375 290.75 86.75 289 89.9375C287.312 93.0625 285.438 96.0938 283.375 99.0312C281.938 99.0312 280.844 98.8438 280.094 98.4688C279.344 98.0938 278.969 97.1562 278.969 95.6562C279.469 94.9688 280.219 93.6875 281.219 91.8125C282.219 89.875 283.344 87.75 284.594 85.4375C285.844 83.125 287.156 80.7812 288.531 78.4062C289.969 76.0312 291.312 74.0312 292.562 72.4062C293.875 70.7188 295.031 69.5938 296.031 69.0312C297.094 68.4062 297.938 68.6875 298.562 69.875C299.625 69.1875 300.781 68.5938 302.031 68.0938C303.344 67.5938 304.656 67.3438 305.969 67.3438C306.844 67.3438 307.562 67.625 308.125 68.1875C308.75 68.6875 309.219 69.3438 309.531 70.1562C309.906 70.9062 310.188 71.7188 310.375 72.5938C310.562 73.4062 310.656 74.125 310.656 74.75C311.344 74.3125 312.469 73.5625 314.031 72.5C315.656 71.375 317.375 70.25 319.188 69.125C321.062 68 322.875 67.0312 324.625 66.2188C326.438 65.3438 327.906 64.9062 329.031 64.9062C330.031 64.9062 330.875 65.2812 331.562 66.0312C332.312 66.7188 332.688 67.5938 332.688 68.6562C330.438 74.1562 328.656 78.5625 327.344 81.875C326.094 85.1875 325.25 87.7812 324.812 89.6562C324.438 91.4688 324.438 92.7812 324.812 93.5938C325.25 94.3438 326 94.9375 327.062 95.375C328.75 95.375 330.375 95.0938 331.938 94.5312C333.5 93.9688 335.031 93.3438 336.531 92.6562C338.094 91.9688 339.656 91.3438 341.219 90.7812C342.781 90.2188 344.438 89.9375 346.188 89.9375C346.188 90.625 346 91.2812 345.625 91.9062C345.312 92.4688 344.812 92.9062 344.125 93.2188C343.625 93.5312 342.719 94.0312 341.406 94.7188C340.156 95.3438 338.781 96.0312 337.281 96.7812C335.781 97.4688 334.344 98.1562 332.969 98.8438C331.656 99.5312 330.719 100 330.156 100.25C328.906 100.812 327.938 101.188 327.25 101.375C326.625 101.5 325.75 101.562 324.625 101.562Z" fill="black"/>
</svg>
